<svg xmlns="http://www.w3.org/2000/svg" xmlns:xlink="http://www.w3.org/1999/xlink" viewBox="0 0 68.49 77.9"><defs><linearGradient id="linear-gradient" x1="62.71" y1="21.8" x2="34.4" y2="79.48" gradientUnits="userSpaceOnUse"><stop offset="0.01" stop-color="#0f5ba7"/><stop offset="1" stop-color="#5ccaeb"/></linearGradient><linearGradient id="linear-gradient-2" x1="1.84" y1="48.52" x2="48.14" y2="6.98" gradientUnits="userSpaceOnUse"><stop offset="0.06" stop-color="#f07a22"/><stop offset="1" stop-color="#fbb516"/></linearGradient></defs><title>sanco-logo</title><g id="Layer_2" data-name="Layer 2"><g id="Layer_1-2" data-name="Layer 1"><path d="M39.51,23l17.2-9.66,11.78,7.68v37L34.88,77.75s-2.38.52-3.64-.4L30,76.42,16.36,68.15c3-1.43,39.7-19.1,43.92-24.87.67-.91,2.85-3.88,1.86-5.89A3,3,0,0,0,61,36.07L57.5,33.63Z" style="fill:url(#linear-gradient)"/><path d="M14.18,11.53,32,1.1s1.33-1.54,4.63.31,4.77,2.71,4.77,2.71l9.78,6C46.92,12.5,8.78,33.79,6.49,36.44a4.47,4.47,0,0,0-1,1.94,4.33,4.33,0,0,0,1,3.51L9.12,44,28.24,55,11.8,65.51.5,58.46V19.57Z" style="stroke:#f8b233;stroke-miterlimit:10;fill:url(#linear-gradient-2)"/><circle cx="66" cy="14.15" r="1.85" style="fill:#1c60ad"/></g></g></svg>